<?xml version="1.0" encoding="UTF-8"?>
<svg xmlns="http://www.w3.org/2000/svg" width="1024" height="1024" viewBox="0 0 1024 1024">
  <defs>
    <!-- 角丸マスク -->
    <clipPath id="rounded">
      <rect width="1024" height="1024" rx="230.4" ry="230.4"/>
    </clipPath>
    <!-- 球体クリップ -->
    <clipPath id="globe-clip">
      <circle cx="512" cy="512" r="330"/>
    </clipPath>
  </defs>

  <g clip-path="url(#rounded)">
    <!-- 背景 -->
    <rect width="1024" height="1024" fill="#1A1A1A"/>

    <!-- 球体ベース -->
    <circle cx="512" cy="512" r="330" fill="#0F0F0F" stroke="rgba(250,250,247,0.6)" stroke-width="0.8"/>

    <!-- 地理要素（球体内にクリップ） -->
    <g clip-path="url(#globe-clip)">
      <!-- 経緯線 -->
      <path d="M659.25,807.326L674.768,797.64L688.564,784.935L700.495,769.345L710.433,751.035L718.274,730.199L723.935,707.056L727.355,681.851L728.499,654.852L727.457,627.668L724.34,599.37L719.177,570.231L712.019,540.531L702.935,510.556L692.013,480.595L679.356,450.936L665.088,421.866L649.346,393.664L632.281,366.601L614.057,340.939L594.851,316.924L574.846,294.787L554.237,274.743L533.221,256.983L512,241.68M794.933,681.85L807.545,657.049L816.662,630.532L822.176,602.614L824.021,573.624L822.519,546.831L818.026,519.703L810.586,492.5L800.27,465.486L787.178,438.919L771.436,413.056L753.196,388.146L732.632,364.429L709.944,342.133L685.35,321.473L659.086,302.648L631.405,285.839L602.575,271.208L572.872,258.896L542.583,249.022L512,241.68M824.54,406.083L816.564,385.963L806.564,366.682L794.606,348.366L780.769,331.138L765.147,315.112L747.842,300.394L728.969,287.083L708.654,275.266L687.033,265.023L664.248,256.422L640.451,249.519L615.801,244.361L590.46,240.981L564.598,239.403L538.387,239.636L512,241.68M693.744,236.557L675.415,226.527L655.379,219.48L633.846,215.487L611.04,214.591L587.199,216.802L562.574,222.096L537.42,230.417L512,241.68M575.939,188.254L568.864,187.923L561.428,189.65L553.679,193.421L545.665,199.215L529.049,216.706L512,241.68M475.434,184.032L479.51,184.573L483.781,187.077L492.803,197.903L502.285,216.25L512,241.68M364.75,216.674L380.21,210.576L396.821,207.111L414.439,206.309L432.908,208.177L452.069,212.699L471.753,219.836L491.788,229.524L512,241.68M229.067,342.15L239.108,327.038L250.523,312.857L263.255,299.679L277.239,287.57L292.405,276.59L308.677,266.797L325.973,258.237L344.205,250.956L363.283,244.988L383.109,240.366L403.584,237.111L424.604,235.24L467.858,235.681L512,241.68M199.46,617.917L194.49,600.98L190.925,583.65L188.779,566.003L188.063,548.116L189.623,521.446L194.287,494.686L202.012,468.091L212.721,441.92L226.313,416.424L242.656,391.848L261.593,368.429L282.942,346.393L306.497,325.952L332.03,307.302L359.297,290.624L388.035,276.078L417.966,263.804L448.803,253.92L480.249,246.522L512,241.68M330.256,787.443L315.059,775.666L301.604,761.556L290.012,745.237L280.384,726.855L272.806,706.57L267.344,684.564L264.048,661.031L262.946,636.179L264.145,609.085L267.731,581.056L273.67,552.362L281.904,523.279L292.354,494.088L304.919,465.069L319.479,436.502L335.892,408.663L354.002,381.818L373.633,356.227L394.597,332.136L416.691,309.778L439.703,289.367L463.412,271.1L487.588,255.153L512,241.68M448.061,835.746L438.445,831.561L429.829,823.03L422.331,810.27L416.051,793.455L411.077,772.812L407.474,748.624L405.293,721.218L404.563,690.968L406.627,634.792L412.741,573.898L422.669,510.625L436.03,447.404L452.311,386.666L470.885,330.745L491.04,281.789L512,241.68M548.566,839.968L554.388,836.974L559.612,829.392L564.164,817.328L567.979,800.953L573.195,756.251L574.967,697.803L573.757,641.496L570.174,580.212L564.355,516.307L556.524,452.237L546.983,390.463L536.096,333.36L524.284,283.122L512,241.68M699.494,770.873L708.724,766.065L717.579,761.03L726.043,755.778L734.099,750.319L741.733,744.664L748.929,738.824L755.675,732.809L761.956,726.631L767.762,720.301L773.081,713.833L773.388,713.436M250.619,713.445L255.135,719.019L260.844,725.377L267.032,731.586L273.685,737.634L280.792,743.511L288.34,749.204L296.313,754.702L304.696,759.996L313.475,765.075L322.631,769.93L332.148,774.551L342.007,778.929L352.189,783.057L362.676,786.926L373.447,790.529L384.482,793.859L395.759,796.91L407.258,799.676L418.956,802.151L430.832,804.331L442.862,806.212L455.023,807.791L467.293,809.063L479.648,810.028L492.064,810.682L504.519,811.025L516.988,811.057L529.447,810.776L541.873,810.184L554.242,809.281L566.531,808.07L578.716,806.552L590.774,804.732L602.682,802.611L614.417,800.194L625.958,797.486L637.281,794.492L648.366,791.217L659.192,787.668L669.737,783.852L679.982,779.775L689.907,775.446L699.494,770.873M728.499,654.852L739.157,649.299L749.382,643.485L759.155,637.421L768.458,631.118L777.273,624.588L785.582,617.844L793.371,610.899L800.625,603.765L807.328,596.456L813.47,588.987L819.038,581.371L824.021,573.624L828.411,565.758L832.198,557.791L835.375,549.736L837.937,541.61L839.879,533.427L841.196,525.204L841.887,516.955L842,512M182,512L182.05,515.303L182.616,523.555L183.808,531.785L185.625,539.977L188.063,548.116L191.118,556.187L194.784,564.173L199.053,572.059L203.918,579.832L209.37,587.475L215.398,594.975L221.99,602.317L229.135,609.487L236.818,616.471L245.024,623.256L253.739,629.83L262.946,636.179L272.626,642.292L282.763,648.157L293.335,653.763L304.324,659.098L315.708,664.154L327.466,668.92L339.575,673.388L352.013,677.548L364.755,681.393L377.777,684.916L391.055,688.11L404.563,690.968L418.275,693.486L432.166,695.658L446.209,697.48L460.377,698.95L474.643,700.064L488.98,700.819L503.362,701.215L517.759,701.251L532.146,700.927L546.494,700.243L560.777,699.201L574.967,697.803L589.037,696.05L602.96,693.948L616.711,691.499L630.261,688.708L643.587,685.581L656.662,682.124L669.462,678.343L681.963,674.245L694.139,669.838L705.969,665.131L717.43,660.132L728.499,654.852M699.494,500.553L708.724,495.744L717.579,490.709L726.043,485.458L734.099,479.999L741.733,474.344L748.929,468.504L755.675,462.489L761.956,456.311L767.762,449.981L773.081,443.513L777.903,436.917L782.218,430.208L786.02,423.396L789.299,416.496L792.051,409.521L794.27,402.483L795.951,395.396L797.092,388.274L797.69,381.131L797.745,373.979L797.255,366.833L796.223,359.705L794.649,352.611L792.538,345.562L789.892,338.573L786.717,331.657L783.02,324.827L778.806,318.096L774.085,311.476L773.381,310.555M250.612,310.564L246.097,316.762L241.782,323.472L237.98,330.284L234.701,337.184L231.949,344.159L229.73,351.197L228.049,358.283L226.908,365.405L226.31,372.549L226.255,379.701L226.745,386.847L227.777,393.974L229.351,401.069L231.462,408.118L234.108,415.107L237.283,422.023L240.98,428.853L245.194,435.584L249.915,442.203L255.135,448.698L260.844,455.056L267.032,461.266L273.685,467.314L280.792,473.191L288.34,478.883L296.313,484.382L304.696,489.676L313.475,494.755L322.631,499.61L332.148,504.231L342.007,508.609L352.189,512.737L362.676,516.606L373.447,520.209L384.482,523.539L395.759,526.59L407.258,529.355L418.956,531.831L430.832,534.011L442.862,535.892L455.023,537.471L467.293,538.743L479.648,539.708L492.064,540.362L504.519,540.705L516.988,540.736L529.447,540.456L541.873,539.863L554.242,538.961L566.531,537.75L578.716,536.232L590.774,534.411L602.682,532.291L614.417,529.874L625.958,527.166L637.281,524.172L648.366,520.897L659.192,517.348L669.737,513.532L679.982,509.455L689.907,505.126L699.494,500.553M620.25,349.322L625.579,346.545L630.691,343.638L635.578,340.606L640.229,337.455L644.636,334.19L648.791,330.818L652.686,327.345L656.312,323.778L659.664,320.124L662.735,316.389L665.519,312.582L668.011,308.708L670.205,304.775L672.099,300.791L673.688,296.764L674.969,292.701L675.939,288.609L676.598,284.498L676.943,280.373L676.975,276.244L676.692,272.118L676.096,268.003L675.188,263.907L673.968,259.838L672.441,255.803L670.608,251.81L668.473,247.866L666.041,243.98L663.315,240.158L660.301,236.408L657.005,232.738L653.433,229.153L649.591,225.66L645.488,222.268L641.13,218.981L636.527,215.806L631.687,212.75L626.619,209.817L621.332,207.015L615.838,204.347L610.146,201.819L604.267,199.436L598.212,197.202L591.994,195.122L585.623,193.199L579.112,191.438L572.473,189.841L565.719,188.412L558.863,187.153L551.917,186.067L544.896,185.156L537.812,184.421L530.679,183.864L523.51,183.486L516.319,183.288L509.12,183.27L501.927,183.432L494.753,183.774L487.611,184.295L480.517,184.995L473.482,185.871L466.52,186.922L459.645,188.146L452.869,189.542L446.206,191.105L439.669,192.834L433.269,194.725L427.019,196.773L420.93,198.977L415.015,201.33L409.285,203.83L403.75,206.47L398.421,209.246L393.309,212.153L388.422,215.185L383.771,218.337L379.364,221.602L375.209,224.974L371.314,228.447L367.688,232.013L364.336,235.668L361.265,239.402L358.481,243.21L355.989,247.084L353.795,251.017L351.901,255L350.312,259.028L349.031,263.091L348.061,267.182L347.402,271.294L347.057,275.418L347.025,279.548L347.308,283.674L347.904,287.788L348.812,291.885L350.032,295.954L351.559,299.989L353.392,303.982L355.527,307.926L357.959,311.812L360.685,315.634L363.699,319.383L366.995,323.054L370.567,326.639L374.409,330.131L378.512,333.524L382.87,336.811L387.473,339.985L392.313,343.042L397.381,345.974L402.668,348.777L408.162,351.445L413.854,353.973L419.733,356.356L425.788,358.59L432.006,360.67L438.377,362.593L444.888,364.354L451.527,365.951L458.281,367.38L465.137,368.639L472.083,369.725L479.104,370.636L486.188,371.371L493.321,371.928L500.49,372.305L507.681,372.504L514.88,372.522L522.073,372.359L529.247,372.018L536.389,371.496L543.483,370.797L550.518,369.921L557.48,368.87L564.355,367.645L571.131,366.25L577.794,364.687L584.331,362.958L590.731,361.067L596.981,359.018L603.07,356.815L608.985,354.461L614.715,351.962L620.25,349.322" fill="none" stroke="rgba(250,250,247,0.2)" stroke-width="0.3"/>
      <!-- 大陸 -->
      <path d="M539.834,831.013L543.859,831.212L546.268,830.839L549.737,830.285L552.27,830.146L551.842,831.753L550.19,832.333L549.263,833.375L547.975,833.169L544.698,834.24L543.879,834.243L541.348,834.395L539.173,833.542L538.878,832.738L536.76,831.713L537.042,831.06ZM651.511,807.604L651.448,808.013L654.864,806.291L654.967,806.628L654.038,807.361L651.712,808.671L647.797,810.775L645.129,812.094L645.347,812.332L642.659,813.368L638.86,815.024L636.509,816.282L632.378,818.304L628.726,819.791L626.422,820.704L623.307,821.72L621.726,822.057L618.051,823.149L618.17,822.896L621.505,821.41L627.939,818.687L630.631,817.668L633.982,816.254L638.128,814.406L641.356,812.831L644.497,811.037L646.401,810.103L648.092,808.941L651.606,807.151ZM667.146,795.732L667.736,796.902L669.2,795.389L670.324,795.272L669.285,796.675L671.511,796.087L673.753,795.171L676.618,793.419L678.15,792.832L675.304,795.123L672.907,796.825L670.289,798.003L668.673,799.03L668.027,799.731L667.09,800.322L664.546,801.933L661.263,803.941L657.686,805.789L657.676,805.579L656.534,805.931L660.384,803.591L660.426,803.04L657.387,803.861L658.248,803.119L661.623,801.361L663.85,799.543L665.007,798.261L664.835,797.446L665.293,797.019L664.285,796.843L662.939,796.048L662.584,795.056L664.202,794.306L665.302,794.764L667.813,794.157ZM656.042,768.572L654.017,769.896L651.684,769.791L648.705,769.307L646.094,768.427L643.495,766.948L643.114,765.975L645.196,765.46L647.634,765.858L649.454,766.399L650.736,766.898L654.056,767.802ZM711.826,732.236L712.972,732.623L711.684,734.889L708.904,736.623L706.69,737.248L706.757,735.814L708.784,733.781L710.588,733.351ZM719.524,725.958L716.593,728.205L713.679,730.294L713.525,729.148L715.861,727.354L717.256,726.492L720.043,724.085L720.947,723.481L719.927,725.579ZM664.682,747.617L662.974,748.608L661.684,747.487L662.061,746.436ZM662.224,742.982L662.437,745.784L661.209,745.718L660.146,746.233L659.654,745.402L660.078,742.522ZM537.485,759.576L539.397,762.441L543.027,760.835L544.805,762.318L547.395,763.61L546.744,765.283L547.784,768.326L548.52,770.063L549.875,770.404L551.169,773.314L550.526,775.156L552.124,777.347L557.824,778.647L561.482,779.898L564.909,780.992L564.118,781.855L566.926,783.585L568.549,786.801L570.732,785.88L572.672,786.994L574.016,786.363L574.426,789.524L577.777,790.922L579.953,791.75L583.467,793.575L584.396,795.675L584.165,797.257L583.431,799.008L585.217,800.95L584.323,803.307L583.157,804.616L581.222,807.03L580.916,808.407L579.452,810.237L576.695,812.617L572.868,814.172L570.611,816.066L568.713,817.297L566.764,819.218L564.66,820.405L563.017,821.963L561.976,823.295L561.993,823.837L559.2,824.725L554.157,825.29L549.785,826.359L547.546,827.173L544.65,828.077L541.154,827.614L538.479,827.495L539.369,826.577L536.83,827.042L532.671,828.435L528.868,828.158L526.341,827.985L523.772,827.942L519.428,827.552L516.542,826.536L515.723,825.193L514.675,824.273L512.383,823.516L507.883,823.269L509.402,822.34L508.232,820.855L505.956,822.209L501.789,822.498L504.207,821.453L504.874,820.295L506.68,819.304L506.251,817.719L502.413,819.472L499.466,820.111L497.784,821.667L494.011,820.717L494.052,819.638L490.89,817.985L488.248,817.058L489.091,816.594L482.706,814.909L479.288,814.626L474.433,813.176L465.774,812.643L459.734,812.827L454.476,812.958L449.893,812.237L445.257,812.711L441.369,812.631L440.904,813.645L439.528,814.255L435.642,813.676L432.853,813.377L428.638,812.267L425.489,811.892L422.426,811.385L420.332,811.991L418.981,811.627L417.059,811.753L415.314,811.959L412.057,811.158L409.13,810.478L403.683,807.987L401.097,806.978L400.445,805.726L402.453,805.966L402.915,805.636L402.309,804.772L402.003,803.276L400.79,801.731L397.194,798.627L395.785,796.986L395.322,795.558L392.74,793.357L392.288,792.533L389.794,790.911L388.328,788.576L384.807,785.608L383.682,784.188L386.203,786.001L383.631,782.862L386.254,784.343L388.069,785.847L387.441,784.327L384.277,781.355L383.509,780.282L382.094,779.064L382.038,777.426L382.753,776.916L382.923,775.52L381.865,773.514L383.188,771.713L384.248,774.278L385.688,772.595L389.361,772.508L391.422,771.699L394.921,771.387L397.127,771.654L398.608,772.382L402.3,772.021L405.283,772.302L405.902,771.729L407.197,771.702L410.023,772.352L415.236,772.409L417.784,771.421L418.811,769.822L421.605,768.596L421.646,767.237L421.508,765.333L424.804,762.897L427.43,766.362L429.613,766.008L427.51,764.014L428.971,762.513L431.407,763.661L431.758,760.979L434.517,759.587L435.68,758.299L438.352,758.035L438.338,756.992L440.764,757.752L440.783,756.817L443.134,756.579L445.731,756.39L449.899,758.603L453.116,761.163L456.528,761.544L460.047,762.24L458.748,760.072L461.206,757.289L463.662,756.51L462.734,755.476L465.044,753.469L468.352,752.367L471.223,753.047L475.904,752.635L475.736,750.613L471.574,749.02L474.543,748.647L478.293,749.875L481.332,751.669L486.087,752.914L487.675,752.586L491.18,753.935L494.438,752.925L496.57,753.326L497.877,752.609L500.473,754.605L499.002,756.649L496.907,758.153L494.974,758.227L495.647,759.77L494.056,761.609L492.114,763.385L492.54,764.443L496.999,766.618L501.287,767.885L504.152,769.183L508.165,771.349L509.713,771.351L512.59,772.263L513.44,773.355L518.671,774.502L522.304,773.248L523.425,771.328L524.564,769.717L525.277,767.718L527.028,764.756L526.28,762.977L526.7,761.882L526.092,759.729L526.883,756.825L527.966,756.01L527.117,754.738L528.505,752.624L529.593,750.415L529.753,749.276L531.891,747.698L533.441,749.601L533.779,752.078L535.186,752.495L535.371,754.138L537.361,756.023L537.725,758.185ZM639.407,732.358L640.723,733.398L637.09,734.258L635.341,732.225L638.371,732.462ZM410.111,736.913L407.853,736.554L400.532,732.244L405.461,732.448L408.381,734.261L410.356,735.873ZM633.008,731.426L630.949,731.99L627.746,732.291L626.69,731.896L627.148,730.176L630.59,730.059L632.248,730.538ZM637.458,729.278L636.597,730.231L632.999,727.539L632.104,725.274L633.895,724.864L635.531,727.784ZM430.32,739.927L425.687,740.103L425.005,739.51L425.406,738.197L427.599,736.053L432.959,735.211L433.545,734.32L438.266,734.033L442.141,734.393L443.864,734.083L445.993,734.863L443.994,735.75L438.3,736.83L433.725,737.383ZM394.381,724.894L396.377,726.445L399.66,726.809L401.113,728.874L395.013,728.399L391.376,728.132L388.544,727.441L390.158,725.445L393.072,726.074ZM421.417,730.112L420.739,732.313L412.64,732.069L405.414,730.179L405.311,728.645L409.53,728.597L413.003,730.49L416.606,730.818ZM628.351,726.181L628.52,726.979L624.456,726.086L621.617,725.171L619.685,724.157L620.505,723.562L622.925,724.084L627.195,725.113ZM616.064,724.559L614.958,725.007L612.645,724.479L610.497,723.12L610.806,722.346L613.97,723.57ZM346.285,706.057L355.876,709.582L356.851,708.128L366.422,713.007L368.494,716.324L376.303,719.203L382.897,723.354L377.085,723.451L371.252,720.231L366.634,719.051L361.339,717.199L356.557,715.002L350.626,711.536L346.955,709.908L344.951,709.751L335.933,704.851L334.935,702.682L330.514,700.71L333.468,697.766L339.359,700.159L343.429,703.252L345.491,704.28ZM487.551,728.907L484.65,731.707L484.054,728.431L485.043,726.918L486.22,725.493L487.529,726.831ZM607.142,723.946L605.585,724.641L603.287,723.384L600.978,721.021L599.919,717.866L600.688,717.319L601.243,718.529L602.876,719.253L605.443,721.577L607.965,722.599ZM585.808,721.405L582.859,722.142L581.938,723.482L578.842,724.919L575.944,726.267L572.95,726.593L568.358,725.819L565.172,724.913L565.669,723.513L570.719,723.647L573.81,722.975L574.71,720.773L575.523,720.57L576.015,722.847L579.219,722.139L580.832,720.444L583.998,718.471L583.45,715.926L586.799,715.405L587.91,715.986L587.751,718.46ZM444.913,713.285L442.833,714.524L438.939,713.209L437.817,711.123L443.493,711.623ZM463.127,713.502L465.234,717.127L460.424,714.854L455.682,714.028L452.487,713.998L448.581,713.413L449.869,711.065L456.877,711.607ZM592.369,716.188L590.594,717.618L589.613,715.142L588.342,713.584L585.83,712.453L582.669,710.934L578.637,710.089L580.211,708.797L583.232,709.702L585.117,710.459L587.46,711.236L589.661,712.825L591.761,713.962ZM484.063,705.997L485.7,713.513L491.641,716.471L496.421,711.794L503.022,709.164L508.14,709.213L513.073,710.832L517.34,712.453L523.51,713.237L533.467,716.079L544.031,718.161L547.959,720.21L551.094,722.233L551.939,724.773L561.332,726.726L562.665,728.896L557.44,729.806L558.637,732.551L563.598,734.894L567.09,738.983L570.301,738.518L570.006,740.373L574.295,740.602L572.575,741.558L578.398,742.602L577.738,743.847L574.047,744.551L572.717,743.656L567.962,743.703L562.331,743.629L558.059,741.393L554.925,739.373L552.091,735.929L544.74,734.552L539.912,736.019L536.412,737.568L537.08,740.615L532.606,742.214L529.448,741.629L523.56,741.605L518.52,738.267L512.734,737.466L511.318,738.659L504.099,738.732L506.508,735.331L510.103,734.175L508.615,729.501L505.844,725.818L494.724,721.856L489.996,721.317L481.369,716.785L479.698,718.873L477.5,719.138L476.189,717.42L476.152,715.458L471.774,712.941L477.917,711.697L482,712.011L481.519,710.777L473.134,710.26L470.857,707.358L465.758,706.113L463.35,703.607L471.029,703.081L473.95,701.76L483.151,704.216ZM433.531,689.09L429.026,693.179L424.837,693.444L419.512,691.658L410.337,690.27L405.554,690.04L404.792,693.454L409.695,698.543L412.639,696.978L422.923,697.147L422.495,699.226L420.079,698.152L417.693,700.477L412.858,701.414L418.163,708.187L417.205,709.572L422.281,715.57L422.331,718.467L419.441,719.268L417.23,717.36L419.77,714.181L414.421,714.97L413.021,713.492L413.68,711.898L409.67,708.544L409.988,704.194L406.359,704.88L406.961,710.239L407.397,716.636L403.987,716.593L401.617,714.838L403.004,711.068L402.037,706.566L399.756,706.067L398.01,702.604L400.192,700.072L400.925,696.565L403.613,690.049L404.754,688.326L409.435,685.679L413.709,687.872L420.655,689.73L427.029,690.542L432.573,687.88ZM452.943,692.842L452.626,696.973L449.712,696.195L448.857,698.968L451.183,701.699L449.596,702.087L447.311,698.865L445.654,692.615L446.814,688.917L448.698,687.373L449.085,690.047L452.422,690.832ZM332.331,697.152L327.054,695.218L322.823,689.93L316.633,683.803L314.515,680.218L310.894,674.994L308.525,670.537L304.967,662.452L301.039,656.686L299.785,651.989L298.227,647.469L294.397,642.498L292.315,637.214L289.246,632.832L285.203,625.086L285.029,622.394L287.684,624.042L294.181,628.418L297.706,635.127L300.928,640.087L303.278,643.268L307.343,650.419L311.971,652.556L315.76,657.508L318.404,662.629L321.955,666.251L320.092,669.324L322.801,672.038L324.505,672.836L325.364,676.394L327.09,679.622L330.616,681.374L333.053,685.149L332.089,690.332ZM393.123,679.852L399.133,685.581L392.745,684.77L390.938,687.601L391.181,691.908L386.077,693.905L386.019,698.468L384.167,704.914L383.333,703.123L377.411,703.651L375.241,700.359L371.516,699.109L368.873,696.947L362.804,696.837L360.871,694.099L357.54,693.343L353.351,691.526L352.424,685.106L349.906,683.017L347.455,678.234L346.771,673.881L347.387,669.655L350.415,667.44L354.083,670.258L358.006,670.567L359.123,666.789L361.335,666.519L367.53,667.236L371.363,664.393L374.042,661.963L376.183,660.654L380.751,659.072L384.969,656.59L387.829,653.287L389.967,653.767L392.58,656.941L392.731,659.182L396.196,661.355L400.612,663.798L400.153,665.673L396.54,665.155L397.427,667.787L393.411,668.605L390.245,672.347L394.085,677.835ZM440.662,655.161L441.106,658.633L441.336,661.538L439.313,665.923L437.422,660.492L434.737,662.713L436.41,666.675L434.761,668.81L428.306,664.947L426.876,661.052L428.633,658.9L425.234,655.945L423.427,657.784L420.845,657.162L416.688,659.308L415.843,657.665L418.173,653.744L421.684,652.886L424.751,651.43L426.588,654.065L430.851,653.293L431.842,651.123L435.744,651.545L435.596,647.496L439.973,650.555L440.332,653.211ZM234.445,583.145L231.698,581.826L230.728,576.61L231.138,569.075L233.72,562.35L235.319,567.012L236.19,571.769L236.961,578.229L235.879,582.913ZM427.87,643.643L425.813,645.054L423.936,648.054L422.149,649.305L418.974,645.161L420.165,643.963L421.616,642.74L422.385,639.595L425.4,639.771L424.345,643.151L428.646,638.738ZM397.978,643.198L390.625,646.509L393.442,643.503L397.469,641.166L400.908,638.255L404.07,633.646L404.714,638.098L401.008,640.237ZM416.967,633.308L420.087,635.498L423.541,636.064L423.313,638.244L420.661,640.049L417.133,641.031L417.084,638.567L417.639,635.965ZM436.707,634.965L437.949,641.059L433.788,639.077L433.796,640.859L434.984,644.271L432.315,645.072L432.279,641.364L430.636,640.845L429.96,637.547L433.146,638.438L433.174,636.43L430.088,631.905L435.299,632.782ZM415.488,626.746L413.732,631.055L411.631,627.99L409.224,623.43L413.767,624.49ZM416.976,597.23L420.033,599.362L421.77,598.224L422.128,599.698L421.047,601.814L422.492,606.025L420.71,610.298L417.431,611.543L416.24,615.738L417.078,620.227L419.857,621.311L422.274,621.08L428.784,625.131L428.068,627.947L429.762,629.498L429.045,631.855L424.997,628.589L423.188,625.47L421.677,627.196L418.488,623.419L413.565,623.329L411.017,621.66L411.466,619.507L413.241,618.452L411.763,616.921L410.913,618.721L408.579,615.133L408.017,612.643L408.304,607.436L410.241,609.634L411.621,601.251L413.816,596.632ZM362.061,582.772L357.51,584.046L353.902,581.095L354.58,576.408L357.333,574.737L362.768,574.879L365.467,575.855L366.18,578.258L363.679,579.996ZM795.69,497.914L795.641,499.155L794.831,499.161L794.417,497.708L793.4,496.379L793.321,495.696L793.424,494.403L792.916,493.632L792.879,493.013L793.085,492.892L794.257,492.636L794.805,492.56L795.403,492.755L796.587,493.743L796.63,494.088L796.141,496.239ZM791.699,491.767L791.054,493.071L790.273,492.503L789.855,492.424L789.714,492.146L789.783,491.459L790.782,490.932L791.666,490.945ZM789.141,491.052L789.264,491.667L787.944,493.01L787.897,492.201ZM786.743,492.811L786.72,493.244L786.53,493.365L785.614,494.148L784.884,493.38L784.711,493.287L785.099,491.873L785.422,491.964ZM781.317,494.153L781.2,494.961L780.001,494.961L779.992,494.465L780.201,493.561L780.826,493.043ZM418.872,573.412L416.146,577.57L414.08,572.368L414.046,568.127L417.707,563.2L422.261,559.701L424.321,561.778L423.011,565.009ZM491.236,516.444L491.753,518.447L488.913,521.801L487.035,519.862L484.501,521.06L483.051,524.351L480.015,522.519L480.222,519.789L483.072,516.534L485.736,517.353L487.809,515.042ZM252.366,316.066L251.802,315.73L251.108,316.559L250.813,316.908L250.825,315.595L251.885,313.88L253.463,311.947L252.945,313.055L252.871,313.215L253.456,312.784L252.498,314.696ZM269.731,288.554L267.624,290.906L266.293,292.638L264.675,294.696L264.189,295.174L263.558,296.151L262.882,296.761L265.343,293.451L265.821,292.966L268.824,289.382ZM521.069,499.576L519.427,504.205L520.281,507.076L517.896,511.168L511.877,513.915L503.55,514.19L496.592,520.597L493.464,518.273L493.423,513.959L485.138,514.83L479.359,517.191L473.805,516.883L478.332,521.476L474.431,530.989L471.115,533.142L468.92,530.717L470.535,525.652L467.631,523.711L466.042,519.598L470.689,518.245L473.452,514.85L478.418,512.24L482.104,508.552L491.482,507.332L496.43,508.703L501.576,498.611L504.578,501.418L511.358,495.721L513.935,493.488L516.688,486.435L515.871,479.994L517.66,476.347L522.231,475.217L524.858,483.095L524.865,487.751L520.878,493.638ZM326.635,238.98L326.095,239.365L323.314,241.264L323.315,241.264ZM532.256,458.885L535.228,459.943L537.965,457.368L539.388,463.679L533.294,465.601L529.887,471.439L523.06,467.763L520.897,474.064L516.123,474.224L515.463,468.55L517.501,464.136L521.954,463.735L522.915,455.843L523.97,451.397L529.001,457.126ZM728.758,293.163L729.594,294.65L728.311,296.916L726.883,296.554L725.625,297.463L724.427,297.029L723.861,298.693L721.525,297.933L720.479,297.086L721.239,295.517L721.749,294.652L721.933,292.976L723.334,293.225L725.218,293.493L726.579,292.511ZM705.694,296.51L705.392,294.423L710.637,298.247L714.347,298.826L714.33,299.631L712.212,299.508L710.068,298.908L708.577,298.998L706.514,298.083L705.04,297.056ZM528.916,422.048L533.343,431.693L527.665,430.127L525.747,438.301L529.85,443.902L529.966,447.847L526.778,444.574L524.371,449.028L523.459,444.312L523.682,438.826L523.001,432.79L523.693,428.553L523.538,421.123L521.211,415.756L521.225,408.244L524.271,405.642L522.804,403.164L524.25,402.35L525.341,405.916L526.847,411.129L527.09,416.535ZM398.432,202.425L402.222,200.873L406.872,199.243L406.922,199.416L410.912,198.312L408.972,199.326L408.074,199.9L405.888,200.764L401.307,202.235L400.941,202.029L398.584,202.662ZM361.803,225.619L359.902,225.584L364.115,223.417L365.955,222.799L364.332,224.635ZM678.116,323.502L678.614,326.547L676.838,326.45L674.565,324.986L674.078,322.223L674.015,320.813L675.081,319.97L676.958,320.373ZM406.261,203.544L405.628,202.698L403.538,203.751L400.886,204.956L399.036,204.981L398.615,204.365L395.813,205.584L389.489,207.504L387.257,208.46L382.208,210.112L380.27,210.818L376.549,212.612L374.888,213.054L375.336,212.641L372.711,213.719L373.562,213.023L377.27,211.187L381.3,209.205L383.184,208.402L383.826,208.016L386.849,206.732L387.946,206.229L390.062,205.379L388.484,206.213L386.495,207.138L391.453,205.06L393.329,204.395L391.176,205.406L394.185,204.342L395.453,204.105L391.123,205.94L392.395,205.709L396.014,204.506L399.744,203.02L401.131,202.612L401.414,202.795L403.057,202.305L403.168,201.935L405.986,201.46L408.703,200.755L410.654,200.846L411.052,201.47L408.889,202.302ZM648.221,331.964L647.838,333.426L645.982,333.561L643.858,333.264L644.819,331.269L646.491,330.574ZM607.452,203.567L609.936,203.912L610.609,204.35L610.205,204.618L609.883,204.575L608.118,204.222L607.333,203.827ZM611.057,206.17L615.259,207.349L616.584,208.082L616.075,208.299L613.024,207.531L610.367,206.162ZM622.474,324.05L624.244,324.131L624.855,323.017L627.221,323.14L629.348,322.51L629.657,323.033L629.288,324.763L627.179,324.784L625.831,324.497L624.59,325.728L623.846,325.639ZM606.767,209.741L608.048,209.479L606.595,209.019L606.514,208.414L605.748,207.31L604.689,206.172L606.123,205.99L604.447,205.319L604.136,204.587L606.927,205.362L609.142,206.89L608.65,207.495L612.361,208.417L616.867,209.876L615.375,210.222L618.165,211.648L614.789,210.728L611.663,210.648L607.684,210.448ZM453.202,196.512L452.17,195.86L448.145,196.066L449.208,194.742L454.34,192.569L456.019,191.963L459.43,191.345L466.66,190.202L465.061,190.992L470.957,190.433L467.164,191.359L467.759,191.594L472.904,190.929L472.387,191.822L469.298,192.591L464.671,192.663L462.386,193.887L459.111,194.283L456.801,195.625ZM585.256,202.585L587.461,203.389L586.374,203.891L583.871,203.97L581.841,203.424L581.297,202.667L582.558,202.338L583.182,202.32ZM264.015,333.925L261.353,337.729L261.206,339.075L260.231,340.824L259.874,339.044L257.004,341.426L255.724,342.278L254.877,342.192L253.096,344.084L250.483,347.656L249.805,350.922L248.147,354.662L247.844,359.088L249.262,362.175L250.114,361.505L252.51,358.257L256.296,354.582L257.25,351.301L259.846,349.352L259.853,347.464L263.06,344.868L262.454,348.14L264.007,349.121L265.983,345.069L268.068,342.245L266.827,341.209L264.007,343.658L266.387,340.502L267.309,339.481L268.983,338.566L270.289,336.844L271.38,332.825L274.87,328.608L275.824,326.419L277.131,325.231L276.873,327.843L279.849,325.423L280.678,326.836L280.292,329.38L284.355,326.418L286.88,323.899L286.438,321.801L287.31,319.074L285.334,317.913L284.42,316.48L281.966,317.368L281.346,315.669L277.262,316.715L273.334,322.009L270.684,324.048L266.032,330.769ZM264.142,294.132L262.458,296.071L260.49,298.362L259.693,299.318L258.561,300.675L256.218,303.59L254.813,305.316L252.295,308.696L249.782,312.109L247.206,315.734L245.977,317.506L245.584,318.456L245.733,318.558L244.598,320.626L243.172,322.983L241.366,325.464L241.96,324.94L240.17,327.95L238.972,330.281L239.068,330.721L239.664,330.327L239.916,329.934L240.967,328.988L242.99,326.855L243.589,326.353L243.586,326.395L245.701,324.491L247.38,323.366L247.474,323.291L250.037,320.416L251.124,319.657L253.008,317.17L253.866,316.889L254.217,315.606L255.914,312.686L254.811,312.816L256.356,309.292L259.201,305.498L260.841,302.666L259.833,303.4L260.49,302.039L263.718,297.955L265.454,295.305L269.673,290.847L272.752,287.448L274.497,286.354L277.191,283.489L278.607,283.397L276.328,286.905L278.391,285.743L275.255,290.603L276.073,291.574L275.733,293.511L274.026,297.369L269.714,303.7L267.046,308.415L266.736,310.778L265.812,313.183L267.065,314.391L268.604,313.38L271.365,310.585L273.128,308.039L273.916,306.356L275.349,304.538L279.561,298.998L281.943,295.25L285.007,291.595L285.041,292.792L287.782,292.305L289.831,289.945L290.447,292.087L291.375,291.414L291.335,289.879L291.607,288.338L290.819,287.748L291.418,285.82L290.711,284.918L288.153,286.731L286.724,288.491L286.033,290.636L284.787,291.185L285.114,289.185L284.232,287.704L285.634,285.88L287.226,285.099L289.6,281.865L290.147,281.759L290.417,282.994L291.638,281.753L294.402,277.691L295.975,276.594L296.6,274.906L294.893,275.48L293.027,275.66L292.007,276.364L291.842,275.847L292.626,274.94L288.474,277.426L287.702,277.349L285.641,278.416L283.087,280.679L281.521,282.006L279.052,284.926L278.452,285.186L280.087,282.573L279.689,282.441L279.208,281.998L281.341,279.985L282.037,279.445L283.183,277.97L284.428,276.522L285.738,274.47L282.557,277.558L282.951,276.835L284,275.566L286.739,272.992L286.367,273.152L283.949,275.259L281.434,277.686L281.451,277.42L278.868,279.996L276.983,281.969L275.14,283.622L277.795,280.681L275.59,282.837L276.528,281.642L273.025,285.101L274.344,283.556L277.394,280.357L280.657,277.221L283.116,274.971L285.398,272.832L288.316,270.149L289.367,269.257L289.961,268.691L290.709,268.079L292.994,265.992L294.728,264.601L296.793,263.087L297.538,262.618L298.414,261.88L299.126,261.239L300.813,259.865L302.41,258.484L305.695,255.674L308.185,253.668L311.237,251.158L315.608,247.915L315.395,248.155L317.849,246.391L319.03,245.667L321.04,244.114L320.31,244.39L322.118,243.158L323.227,242.519L323.194,242.558L322.982,242.802L325.328,241.026L326.091,240.186L324.336,241.245L323.71,241.573L321.259,243.212L317.339,246.064L313.459,248.821L308.204,252.856L306.375,254.446L305.095,255.46L305.111,255.344L301.865,258.068L299.208,260.354L295.601,263.483L294.766,264.182L294.049,264.679L296.791,262.301L299.321,260.029L298.278,260.735L295.424,263.217L294.089,264.295L294.904,263.538L293.62,264.595L294.003,264.256L294.003,264.256L295.015,263.369L295.325,263.099L296.427,262.166L296.546,262.089L299.26,259.801L301.558,257.912L302.958,256.74L305.018,255.092L307.176,253.338L309.502,251.525L311.577,249.883L314.968,247.32L319.334,244.131L322.885,241.625L326.75,239.06L328.405,237.918L331.571,235.805L332.385,235.23L332.553,235.066L333.474,234.462L333.665,234.338L333.665,234.337L343.464,228.283L353.468,222.574L363.665,217.217L374.044,212.22L381.282,208.994L379.332,209.849L373.657,212.425L377.703,210.697L373.775,212.47L369.517,214.84L371.161,214.353L369.464,215.375L368.005,216.304L367.557,216.746L370.153,216.473L368.303,218.013L366.279,219.247L366.564,219.314L364.867,220.482L363.677,220.99L363.919,221.474L365.752,220.755L367.88,220.132L370.743,219.04L374.495,218.138L375.132,218.153L375.648,218.315L374.109,219.474L374.446,219.744L373.963,220.631L372.068,221L371.418,220.858L370.127,221.267L368.488,222.178L367.551,222.172L368.554,221.642L367.355,221.273L365,222.148L363.56,222.562L360.594,224.329L359.309,224.707L357.907,226.058L357.806,226.611L354.09,228.837L351.945,229.991L351.765,230.709L350.675,232.634L349.8,234.235L347.416,236.092L346.302,236.553L344.646,238.178L346.081,237.934L345.257,239.772L349.115,238.251L352.254,237.314L354.232,237.291L354.394,238.348L350.048,240.608L349.062,241.885L352.192,241.14L354.671,240.54L354.571,240.126L356.964,238.684L359.634,237.853L359.309,239.448L358.488,241.198L356.52,243.087L355.542,244.661L356.969,245.672L360.234,243.428L361.78,240.785L362.122,238.576L363.176,236.384L366.353,234.944L369.078,233.213L373.192,232.612L377.875,231.183L379.934,231.366L381.759,232.078L384.394,234.202L384.738,234.889L386.864,234.438L390.483,232.391L390.921,230.473L388.735,229.7L385.74,230.276L383.987,228.781L382.686,226.847L377.605,226.853L373.541,228.374L369.765,230.197L366.321,229.934L366.968,228.644L360.675,229.775L357.861,229.946L360.405,227.983L358.346,227.985L360.364,226.269L364.607,224.812L370.568,222.559L377.455,220.41L381.071,219.11L380.419,217.251L382.228,215.656L386.903,213.597L391.482,212.655L400.469,211.589L401.146,212.5L399.769,215.298L400.713,217.32L403.797,219.117L408.97,221.48L410.352,223.146L413.216,225.807L413.222,227.927L411.523,229.578L414.351,230.891L412.767,232.699L412.536,234.411L406.821,237.998L406.232,236.8L402.322,238.387L403.506,239.264L399.452,241.558L396.871,244.903L389.451,250.718L386.701,252.31L383.185,253.334L380.807,252.646L380.076,250.864L386.274,244.179L386.072,243.389L381.362,246.301L373.753,248.334L371.468,250.547L369.736,252.024L372.122,251.506L374.712,250.015L376.23,250.418L371.948,254.665L372.877,255.463L376.912,253.425L381.241,255.061L380.701,256.359L378.663,258.16L382.166,257.799L385.474,255.79L388.55,255.492L392.001,253.683L389.855,257.561L386.814,259.183L386.292,257.8L383.347,258.719L381.436,260.319L382.467,261.948L385.845,261.128L388.404,262.887L393.375,265.492L393.251,266.483L389.827,266.51L389.514,268.236L391.495,268.399L392.148,270.598L394.834,271.446L392.088,274.172L396.041,273.966L398.676,271.433L400.628,271.279L400.364,275.283L399.471,277.612L395.942,284.788L399.059,284.1L401.03,281.512L402.087,280.912L401.812,279.324L404.451,278.452L408.154,275.895L409.796,275.067L415.558,274.638L420.638,272.984L422.093,273.17L422.445,276.23L419.798,277.91L415.05,279.215L413.9,280.701L410.662,282.983L403.706,286.689L401.649,289.719L398.012,291.26L389.357,293.26L389.673,295.117L391.783,294.478L394.051,294.994L396.687,293.753L399.792,293.252L401.982,290.842L405.598,289.335L405.034,287.916L407.547,286.02L413.143,283.901L416.152,280.321L420.853,280.109L424.204,277.915L424.684,278.292L422.352,280.317L417.313,282.726L417.317,284.275L420.441,281.74L423.735,282.097L425.783,283.754L424.839,287.126L427.876,283.771L432.795,280.463L435.24,281.215L437.221,283.176L439.873,284.352L441.4,282.088L445.357,280.792L446.537,281.465L450.471,281.085L453.563,282.227L454.99,281.494L457.947,282.635L457.928,283.864L462.211,283.15L464.074,284.109L465.856,282.677L468.288,281.566L472.024,281.066L472.784,282.941L470.575,283.312L472.554,284.801L471.393,286.793L473.14,286.228L476.478,287.363L477.955,290.09L478.071,291.874L476.524,293.904L474.342,294.71L469.387,295.912L467.564,296.784L468.9,297.9L470.34,299.565L472.096,299.146L471.303,302.036L472.564,301.122L475.281,301.068L479.771,302.877L479.258,304.976L485.691,306.866L486.922,303.523L490.009,304.79L492.549,305.098L494.607,307.751L494.761,310.714L493.323,312.505L494.835,316.333L497.427,318.462L499.913,313.747L502.56,315.994L505.77,314.884L509.233,316.397L510.607,315.111L513.592,315.76L512.255,311.489L514.493,309.495L530.385,311.513L532.493,314.05L538.139,316.928L545.158,314.868L548.99,314.914L551.259,316.448L552.446,319.794L555.308,320.566L557.372,319.049L560.552,318.102L564.432,318.017L567.521,316.503L572.999,319.37L574.31,317.218L571.115,314.955L570.617,312.791L576.722,312.007L579.884,310.373L586.007,310.276L589.714,310.973L589.714,310.973L596.282,312.039L604.081,313.667L606.314,316.208L608.334,316.555L605.184,313.903L609.875,311.885L616.557,313.483L616.831,316.199L614.688,318.305L618.468,322.227L618.605,323.485L616.916,324.359L614.297,323.729L610.934,323.874L608.947,322.306L606.606,322.615L605.09,324.214L602.895,323.253L601.962,321.516L600.694,323.576L603.134,325.147L603.567,327.465L603.571,327.493L602.649,330.553L599.916,331.388L603.401,332.906L607.289,335.953L609.098,336.689L610.701,338.391L611.06,339.818L606.505,340.653L602.798,346.666L601.153,348.006L599.621,352.641L597.812,356.807L598.102,359.305L592.822,357.169L588.147,363.036L586.138,361.55L584.596,364.376L580.804,364.642L581.288,368.14L579.913,373.839L580.788,375.868L584.429,376.198L586.917,383.724L584.257,384.6L584.525,389.235L586.587,391.17L582.09,395.099L582.912,401.367L578.453,403.689L579.002,409.318L575.438,415.284L573.23,411.792L569.822,404.201L565.038,392.681L564.622,385.135L566.279,381.571L565.744,379.12L569.892,377.1L572.761,369.617L575.469,363.38L578.481,358.27L577.424,350.882L574.679,352.069L574.899,356.468L570.472,363.444L566.156,357.783L560.034,360.801L555.624,370.458L558.777,373.231L552.714,375.555L548.333,376.689L547.78,372.911L543.195,372.643L540.054,375.571L531.012,375.39L521.475,377.413L511.874,387.905L499.124,400.349L504.337,401.19L505.877,404.627L509.153,405.888L511.343,403.171L515.042,403.517L520.114,409.44L520.388,414.098L517.76,419.669L517.602,426.291L516.054,435.24L510.257,443.388L508.889,447.284L503.311,453.793L497.565,460.19L494.731,463.448L488.957,466.514L486.303,466.437L483.881,463.504L477.895,467.244L477.06,469.087L475.485,468.604L473.46,470.377L471.984,472.196L471.697,476.298L469.345,477.339L468.455,478.274L466.643,479.787L463.647,480.41L461.566,481.728L461.108,484.181L460.525,484.749L462.158,485.879L464.347,488.657L467.463,495.803L468.193,499.624L467.593,506.235L465.533,509.216L461.209,509.87L457.231,511.821L452.992,511.802L452.864,508.622L454.265,504.447L453.033,498.244L456.497,497.712L454.084,492.436L452.084,491.059L451.388,492.065L450.027,492.359L450.027,491.257L448.961,490.574L447.911,489.497L449.51,487.17L450.633,486.651L450.398,485.556L451.974,482.642L451.836,481.67L449.405,480.694L447.631,478.877L441.388,479.573L437.767,481.692L432.861,482.403L435.641,480.199L435.187,477.842L439.258,474.644L437.628,471.297L433.603,472.621L428.065,475.614L424.695,478.709L420.539,478.108L417.795,480.242L419.146,484.536L422.417,486.205L422.013,488.76L425.087,491.103L430.733,488.021L434.177,490.931L436.968,491.568L437.176,494.669L430.641,495.143L428.005,497.812L423.165,499.804L420.119,503.3L424.339,507.368L425.111,513.289L427.018,519.002L429.482,523.93L428.743,528.13L425.546,529.142L426.201,532.366L428.749,534.629L427.333,539.108L425.453,543.367L422.679,543.382L418.232,548.816L413.187,555.4L407.64,561.127L400.113,564.772L392.584,567.833L386.999,567.089L383.63,568.756L382.264,566.521L379.077,568.513L371.912,569.349L366.74,568.67L364.091,573.917L361.41,573.41L360.894,569.07L362.4,567.328L356.497,563.527L354.149,563.679L347.108,566.15L342.31,569.846L340.585,573.196L343.032,580.143L346.198,588.686L349.966,593.463L352.242,598.714L353.137,609.212L351.395,618.193L346.945,620.247L341.046,621.649L336.681,624.504L330.292,627.021L328.897,623.103L330.583,620.149L327.436,615.884L323.639,613.562L322.117,610.128L320.516,603.823L316.823,599.714L313.001,598.119L314.281,594.343L310.408,592.606L309.176,598.135L305.748,604.53L303.749,608.363L303.602,612.183L306.444,613.687L307.744,619.132L308.12,623.856L310.37,627.851L313.059,629.647L315.221,633.256L316.243,634.18L318.76,638.321L320.497,642.437L320.588,645.858L319.995,647.885L320.378,649.747L320.609,652.753L322.222,654.761L323.968,659.763L323.855,661.341L320.51,660.317L316.167,654.93L310.839,648.748L310.408,646.045L307.933,641.611L307.541,637.275L306.1,633.85L306.843,630.462L306.029,627.907L304.433,625.173L303.909,622.351L301.847,618.401L299.982,614.992L298.971,617.598L298.44,614.402L299.259,611.484L301.122,607.257L301.2,603.269L303.081,600.008L302.078,596.259L303.32,590.817L302.042,587.287L301.792,580.4L302.321,573.445L301.425,568.195L298.173,569.421L292.812,570.67L290.667,568.966L288.48,566.376L291.274,560.71L291.613,555.363L290.104,547.611L291.065,546L289.021,544.024L287.546,538.189L287.282,534.822L287.856,532.035L287.919,529.1L287.357,525.125L284.15,522.835L283.786,525.178L281.774,527.352L280.613,525.317L279.8,525.922L279.004,524.698L277.811,523.325L276.728,524.885L274.429,523.213L269.962,521.311L268.921,525.318L266.221,527.043L260.496,526.9L255.167,530.033L251.904,531.284L247.941,531.976L247.289,534.287L245.459,534.21L242.316,533.596L240.889,532.592L239.016,535.579L238.013,542.652L237.222,546.937L234.973,550.488L233.33,558.902L231.791,557.694L229.846,560.174L230.438,562.653L227.646,561.463L226.206,563.845L224.896,564.097L223.054,556.794L223.046,548.595L223.029,542.523L222.635,539.19L222.37,532.916L223.266,526.041L223.652,522.467L223.406,513.084L225.433,502.378L226.915,495.254L229.087,489.337L230.426,484.218L226.245,482.994L225.058,480.398L224.965,470.812L226.596,470.444L226.862,467.717L226.578,460.315L225.895,457.02L227.022,452.765L227.555,446.987L224.394,442.585L222.2,437.978L220.19,434.525L218.953,427.634L218.527,423.405L217.93,419.505L220.723,412.816L220.854,410.638L219.898,409.176L218.09,408.337L218.385,403.305L220.042,397.035L220.546,393.017L223.011,387.072L226.694,379.417L226.186,378.551L227.131,375.375L226.009,375.908L226.188,374.008L224.908,376.405L224.269,377.079L222.149,381.1L219.793,385.826L219.186,388.226L218.267,390.196L217.223,393.985L216.168,395.912L215.313,397.046L214.483,398.862L213.828,400.92L213.043,402.733L212.472,404.236L214.24,400.902L215.598,399.45L215.925,399.797L215.199,402.049L213.756,404.627L212.278,406.525L211.411,408.764L211.57,409.081L210.935,410.398L211.533,412.061L211.776,414.662L211.965,416.614L213.907,415.668L215.877,415.049L217.795,414.199L218.841,413.543L218.706,414.295L217.605,415.847L217.063,416.264L215.227,420.175L213.915,424.573L213.488,427.869L213.775,430.659L213.872,433.243L212.998,437.205L212.525,439.532L212.602,441.194L212.116,442.21L210.494,443.858L209.756,444.673L208.703,444.87L206.987,446.881L206.697,445.254L206.05,445.713L204.931,447.565L203.768,451.029L203.465,451.303L203.101,449.864L201.944,449.649L200.999,451.596L200.466,451.867L200.066,449.884L199.384,449.819L198.692,451.695L197.946,451.46L197.813,449.292L196.937,448.731L196.652,447.533L195.951,446.48L195.177,447.905L194.639,449.398L193.737,448.16L192.831,445.198L191.812,445.557L191.76,444.397L191.866,443.176L191.374,443.186L191.24,442.013L191.392,439.559L191.395,439.012L191.125,439.508L191.127,438.995L190.861,439.664L191.096,437.967L191.072,437.553L191.486,435.103L192.378,431.63L193.093,429.257L193.593,427.403L194.762,423.469L195.546,420.72L195.497,421.14L196.259,418.775L196.487,418.305L197.204,416.24L197.981,413.94L198.669,411.671L199.398,409.669L200.364,406.491L202.244,401.193L203.978,396.798L205.854,391.735L206.554,389.671L209.067,383.637L210.629,380.384L211.863,378.056L214.87,371.79L216.225,368.812L217.256,366.382L218.953,363.105L219.431,362.365L220.983,359.492L221.845,357.768L224.13,353.727L226.89,348.856L229.288,344.792L229.895,343.397L231.154,341.772L232.038,340.587L232.975,339.441L233.414,338.809L232.66,339.523L230.909,341.741L229.89,342.944L229.747,342.941L231.034,340.779L232.816,337.854L237.677,330.615L237.58,330.654L234.142,335.663L230.652,341.135L225.712,349.22L223.908,352.383L222.141,355.533L218.458,362.544L218.305,362.66L216.818,365.37L213.499,372.477L212.866,373.846L210.478,378.882L210.357,378.973L208.182,383.718L205.56,389.899L204.711,392.119L203.492,395.395L200.962,402.192L199.228,407.071L197.981,410.931L195.47,419.423L194.266,423.723L193.118,428.047L192.469,430.597L191.79,433.527L191.27,435.693L190.786,437.472L190.839,436.736L190.269,439.355L189.877,441.252L189.319,443.767L188.647,447.146L188.416,448.77L188.321,450.651L188.137,453.63L188.311,455.053L188.325,456.358L188.503,456.668L188.522,458.354L188.549,459.297L188.742,460.099L188.91,461.349L189.384,461.3L189.46,462.505L189.137,463.856L188.453,466.27L187.882,468.725L187.463,469.723L186.363,473.856L185.335,477.496L184.335,481.454L183.44,485.516L182.974,487.963L182.735,489.982L182.735,489.981L183.704,478.504L185.073,467.067L186.841,455.685L189.004,444.371L191.561,433.14L194.509,422.005L197.843,410.979L201.56,400.077L205.655,389.311L210.123,378.694L214.959,368.24L220.158,357.961L225.711,347.87L231.614,337.978L237.858,328.299L244.436,318.844L251.34,309.623L258.562,300.65ZM607.982,220.397L610.264,220.977L610.478,222.311L611.888,223.12L611.31,224.464L608.956,223.59L606.237,222.941L606.375,221.912L606.509,221.328L607.006,221.02ZM580.638,300.914L583.084,303.568L581.681,304.541L580.323,303.416ZM580.638,300.914L580.67,300.668L581.83,300.088L584.842,300.143L585.239,300.726L584.707,302.391L583.084,303.568ZM786.87,329.391L786.82,329.323L785.526,327.459L786.258,328.635L785.898,328.321L785.392,327.838L784.636,326.833L783.446,325.589L781.873,323.837L780.761,322.435L780.694,322.985L781.3,324.041L781.297,324.612L782.691,326.477L783.84,327.74L785.816,330.175L786.465,330.725L787.237,331.188L787.612,331.59L787.568,331.432L788.264,332.322L787.953,331.785L789.297,333.598L789.449,333.686L789.992,334.413L790.193,334.557L791.85,337.118L791.857,337.129L791.857,337.129L795.692,343.422L795.694,343.425L793.949,340.54L792.918,338.915L792.95,339.082L792.943,339.333L793.467,340.193L793.206,339.92L793.515,340.742L792.88,340.22L792.587,339.738L792.141,338.785L790.635,336.354L789.404,334.589L788.595,334.099L788.645,334.712L787.4,333.442L786.019,332.076L784.282,330.467L782.098,328.362L780.74,326.999L779.69,326.713L779.814,327.544L779.029,326.827L779.436,328.151L778.931,328.166L779.462,330.297L779.164,330.402L777.49,328.791L774.935,327.837L770.783,325.187L769.952,324.297L769.084,324.307L766.57,323.427L763.69,321.012L761.96,320.514L758.759,317.218L755.521,314.5L752.721,312.802L748.836,308.871L741.43,302.726L735.988,299.147L732.534,297.356L730.688,296.652L729.806,295.834L730.556,293.634L734.237,295.138L732.991,293.844L729.621,291.888L726.306,290.358L726.372,290.647L722.987,292.053L721.351,292.366L720.026,294.991L716.17,293.66L713.365,291.675L711.614,293.073L707.92,291.202L704.619,291.574L702.206,290.219L700.431,290.244L698.897,291.04L694.722,289.209L690.692,289.376L686.021,287.816L685.525,289.316L684.995,292.001L683.209,293.223L677.3,293.784L675.917,294.822L673.231,296.636L672.796,299.121L669.217,300.858L666.257,301.396L666.378,303.777L669.88,305.663L669.711,306.746L669.653,309.249L670.387,311.765L670.257,314.24L667.376,312.459L663.236,308.477L662.79,305.861L661.345,305.461L662.745,309.206L665.153,312.494L666.836,317.176L669.884,317.739L672.036,321.791L672.577,325.037L672.632,327.779L674.231,329.837L674.268,334.343L675.81,336.681L675.823,340.279L674.424,341.098L674.065,343.736L673.743,346.769L673.633,349.494L671.641,353.457L670.7,352.993L670.864,349.289L671.35,346.458L670.926,342.522L672.479,340.087L671.536,337.665L671.087,333.123L670.546,331.994L670.069,329.483L666.997,326.362L665.067,323.39L664.86,326.279L663.659,326.126L664.487,328.321L661.361,327.378L662.52,329.151L659.835,327.809L660.059,330.828L659.125,331.732L656.472,329.54L655.181,327.863L652.701,327.41L651.509,329.976L648.218,329.303L646.132,329.283L643.78,327.066L640.795,326.4L639.006,323.659L637.879,320.485L636.212,318.099L637.05,316.816L638.699,316.54L637.682,313.751L639.019,313.149L638.618,311.07L636.331,309.684L634.825,309.738L634.005,307.475L633.306,308.261L632.928,310.319L633.511,311.488L631.493,311.636L630.068,313.73L626.977,314.544L624.67,313.515L620.424,312.736L620.616,309.657L621.422,305.454L622.447,304.55L624.492,306.465L626.915,303.933L623.151,302.713L619.957,302.738L616.875,301.756L613.822,301.263L610.751,301.528L609.147,299.147L611.079,297.293L610.411,294.516L608.441,292.687L607.288,290.172L607.705,288.876L607.346,285.702L608.479,285.02L607.149,281.99L609.366,281.124L612.157,281.668L611.522,280.689L613.018,279.155L614.144,279.833L616.043,278.709L616.177,277.387L619.041,275.957L620.549,274.113L621.606,273.582L621.35,271.745L623.548,270.743L624.69,269.831L626.561,268.223L629.539,267.384L630.263,266.344L628.181,264.496L626.677,262.515L627.473,261.021L625.167,258.562L623.789,256.32L625.996,256.178L624.675,254.982L622.107,254.053L622.61,253.439L627.191,252.766L623.27,250.372L627.309,251.181L626.124,249.567L624.451,248.787L624.385,247.488L626.066,246.216L626.985,243.908L627.172,242.48L626.304,241.298L628.116,240.171L631.511,242.273L631.485,240.306L628.985,237.015L627.465,235.905L629.576,235.062L626.171,233.488L624.921,234.401L622.708,233.49L621.469,232.126L620.287,231.208L620.725,230.428L622.391,229.539L620.914,228.286L621.183,226.495L618.741,224.779L617.175,223.236L614.508,223.286L612.704,222.37L612.361,220.813L616.508,220.855L612.234,220.179L611.339,219.376L606.44,219.043L605.047,220.152L604.586,221.302L599.555,221.456L595.069,220.673L594.372,219.518L595.158,218.495L598.315,216.89L601.484,217.508L599.952,215.788L599.952,215.788L604.139,215.476L599.144,214.532L600.029,213.238L603.371,213.256L604.535,212.172L600.176,211.463L595.819,211.211L591.589,211.754L589.842,210.589L588.197,209.352L587.895,207.994L589.52,207.622L592.578,207.894L593.273,207.031L595.169,206.89L600.953,208.286L603.856,209.495L604.452,210.532L606.814,210.689L611.576,211.492L613.712,211.751L618.249,212.957L620.903,214.502L623.873,215.44L626.533,215.653L628.975,217.034L634.245,218.794L640.582,220.711L644.414,221.7L649.15,222.592L647.174,220.713L649.95,220.797L651.931,220.756L648.423,218.667L646.177,216.468L645.398,215.41L645.47,214.802L643.577,213.342L642.52,212.261L638.754,210.174L636.4,208.873L639.491,209.684L641.781,210.074L643.217,210.099L641.858,209.034L638.78,207.743L634.406,206.201L631.339,205.689L631.657,206.194L626.122,204.047L621.173,202.44L617.784,201.565L616.11,201.428L615.381,201.908L616.096,203.006L610.204,201.669L608.504,202.064L604.49,202.495L602.29,201.894L599.381,200.316L597.371,199.404L594.785,198.774L593.607,197.916L592.276,196.768L592.542,196.431L588.413,195.013L590.502,194.855L592.646,194.443L590.597,193.705L589.971,193.111L584.862,192.056L580.019,191.572L577.342,191.254L577.027,190.514L575.798,189.452L574.695,188.664L576.953,188.928L573.858,188.117L571.967,187.625L567.341,186.737L565.722,186.429L565.572,186.377L565.573,186.378L576.904,188.446L588.156,190.908L599.316,193.761L610.369,197.002L621.302,200.627L632.103,204.632L642.756,209.01L653.251,213.758L663.573,218.869L673.711,224.338L683.652,230.157L693.384,236.319L702.894,242.817L712.172,249.643L721.206,256.789L729.986,264.246L738.499,272.004L746.737,280.055L754.689,288.389L762.345,296.995L769.696,305.862L776.733,314.981L783.448,324.341ZM603.711,237.41L606.427,238.104L603.701,235.895L605.535,234.79L602.224,233.598L603.332,232.845L607.758,232.324L605.324,231.748L600.611,232.206L599.299,231.414L599.427,230.558L600.64,229.592L604.955,229.087L608.152,228.877L609.082,227.315L609.607,225.591L611.779,225.737L613.768,227.405L614.962,226.82L617.03,227.251L618.03,229.121L618.268,230.858L619.55,232.123L622.749,234.344L625.801,237.79L627.046,239.385L624.967,239.634L624.353,240.953L625.411,242.05L621.881,242.73L621.013,241.91L619.332,240.102L618.776,238.62L617.097,237.128L617.014,239.013L618.531,241.336L619.074,242.836L617.349,243.077L614.2,240.353L614.974,241.947L614.259,243.522L609.931,242.075L607.534,241.116L603.168,238.254ZM596.271,228.819L600.185,229.567L597.788,230.898L596.851,230.6L595.726,229.471ZM567.483,208.472L568.237,208.092L569.614,208.733L571.002,209.386L572.93,209.895L573.104,210.136L572.684,211.374L571.354,211.742L570.526,211.534L567.983,210.097ZM580.267,214.878L581.76,213.812L577.54,213.895L572.965,212.698L574.495,210.555L576.993,209.999L573.277,209.042L570.652,208.908L569.155,207.046L568.578,205.712L569.686,205.144L566.15,204.367L566.261,203.055L563.293,201.317L562.796,200.399L563.349,198.854L567.867,199.348L564.972,197.406L562.343,196.362L561.331,194.734L558.155,193.917L560.153,193.401L566.31,193.326L568.142,194.337L569.365,196.009L572.336,196.668L573.969,196.307L573.082,195.239L571.114,194.101L570.763,193.677L571.332,192.666L573.651,192.477L576.086,193.409L580.046,195.49L578.806,194.096L577.669,193.124L578.032,192.866L583.653,194.898L587.189,196.706L588.632,197.825L587.113,197.682L588.928,199.05L590.589,200.408L591.39,200.263L597.76,202.592L598.361,203.437L594.757,203.162L591.047,201.648L586.583,200.135L586.218,200.586L584.11,200.639L578.867,200.428L578.148,200.961L577.88,201.496L579.195,202.917L581.627,204.582L579.758,204.35L579.536,205.597L580.756,206.248L580.865,207.08L582.686,207.209L585.909,208.421L590.453,211.349L592.258,213.205L593.808,214.601L593.455,215.46L590.295,214.878L592.035,216.004L588.222,216.837L583.659,216.87L580.848,216.459L576.886,214.964ZM591.003,225.511L590.999,224.5L588.848,223.157L589.951,222.831L593.009,223.39L593.546,222.008L597.799,221.865L601.218,223.212L601.775,224.09L600.653,224.759L599.159,227.032L597.599,227.048L596.473,225.291L594.283,226.343ZM519.65,307.694L517.137,307.821L513.719,307.387L513.423,307.152L514.914,305.348L516.902,304.89L519.334,306.52ZM589.223,219.445L593.623,219.939L594.654,220.893L591.338,221.75L589.076,221.962L586.67,221.778L584.522,221.2L582.669,219.684L581.779,218.167L587.128,218.648ZM615.483,244.755L618.945,248.036L616.708,248.11L614.295,249.895L612.458,249.173L607.796,247.499L604.031,246.035L600.84,246.347L599.266,243.234L600.01,242.128L599.469,239.92L600.654,239.217L602.457,238.469L604.334,239.755L609.036,242.556L613.228,244.371ZM529.271,298.491L527.995,300.41L525.521,300.253L522.468,298.748L522.583,297.304L525.379,297.736ZM579.955,221.13L582.169,221.24L583.14,222.313L582.988,223.329L580.476,223.226L578.054,222.44L578.877,221.604ZM520.724,297.14L519.979,300.463L514.432,300.535L511.933,301.597L509.035,298.697L509.92,295.707L511.765,294.906L515.422,295.054ZM575.936,225.546L577.551,224.754L579.922,224.416L583.763,224.324L585.549,225.476L585.605,226.331L582.777,226.558L584.304,227.7L580.548,228.041L579.987,227.292L577.318,226.461L576.608,225.514ZM584.565,231.995L586.181,231.667L584.824,231.036L584.44,230.266L586.804,230.038L589.582,230.431L592.349,233.104L595.929,235.248L596.783,236.541L595.108,236.544L591.805,234.748L594.385,238.451L593.916,239.524L588.158,238.062L586.315,237.275L586.995,235.23L589.291,233.933L588.783,232.589L584.526,233.671L582.184,233.036L582.274,232.299ZM404.249,266.113L403.615,265.651L403.635,261.86L406.003,260.783L407.255,258.417L410.203,257.393L411.464,258.085L414.458,257.17L419.393,257.689L419.945,256.643L425.152,257.383L427.608,256.421L430.962,257.415L435.338,258.907L437.431,261.078L440.075,261.589L441.555,262.71L439.778,264.056L437.83,264.243L433.709,262.581L430.055,261.068L423.97,260.182L418.268,260.581L412.686,260.785L408.205,262.501ZM571.369,223.474L571.947,222.534L570.327,221.369L571.002,220.545L572.813,220.327L572.73,219.414L573.122,218.799L571.999,217.939L570.88,216.981L568.411,216.304L565.963,215.281L564.484,214.327L564.635,213.277L565.824,212.632L567.49,212.647L570.007,213.241L571.029,214.126L574.816,215.716L577.093,217.013L578.255,218.183L579.479,220.218L577.397,220.872L575.33,221.351L574.244,222.342L575.342,223.736L574.787,224.693L572.611,224.764ZM580.267,237.595L584.486,237.861L586.622,238.53L587.181,239.246L590.045,240.866L591.29,242.213L590.384,243.144L585.889,241.399L581.82,239.639L581.485,238.574ZM568.834,223.36L569.303,223.593L570.374,224.734L569.268,225.121L567.916,223.967L568.229,223.4ZM577.726,233.558L580.035,234.783L578.881,235.78L576.877,235.249L575.77,234.316L576.006,233.389ZM448.703,231.357L447.809,229.779L449.973,228.773L450.861,229.33L452.789,229.14L452.702,230.474L450.593,230.542ZM572.749,233.4L574.272,234.112L574.898,235.152L574.13,235.152L572.153,234.563L572.194,234.232ZM567.827,224.969L569.792,225.637L569.228,226.29L567.723,226.826L565.794,227.205L565.2,226.476L565.145,226.107L565.975,225.148ZM569.275,227.58L571.054,227.061L571.506,228.103L570.839,229.271L571.833,230.613L569.836,230.193L569.213,231.01L567.288,231.248L567.039,230.085L567.406,228.349ZM474.674,279.121L468.017,278.201L474.274,274.399L475.358,274.319L475.784,274.816L476.23,277.755ZM461.298,228.733L455.908,229.969L455.312,228.297L452.058,227.482L451.702,226.832L448.054,226L448.722,225.207L453.117,224.35L454.116,225.173L456.483,224.573L461.644,224.38L465.646,224.886L465.592,226.559L463.652,226.447L462.88,227.156L464.28,227.672L463.65,228.41ZM461.589,232.855L459.017,233.713L456.771,232.695L457.429,231.043L459.691,229.571L461.149,229.68L461.963,228.971L464.752,228.836L464.646,230.537L462.793,231.061L463.885,231.757ZM457.843,246.509L457.061,245.89L456.623,245.454L455.692,245.505L454.767,244.969L456.148,244.19L457.903,244.296L458.188,243.076L459.114,244.013L459.156,244.808L457.615,245.117L458.979,245.242L459.921,245.61L458.723,246.579ZM471.896,275.098L469.584,274.616L468.415,272.471L468.673,270.53L471.053,267.992L470.971,266.836L475.457,265.788L477.725,265.863L477.108,268.125L475.299,272.139ZM554.624,222.476L555.035,221.504L557.276,221.696L561.815,221.613L563.482,222.429L564.449,223.645L563.382,224.626L561.731,225L560.02,224.904L561.218,225.786L560.356,226.666L558.601,227.431L556.149,227.587L554.367,227.631L553.491,227.284L552.678,227.741L551.208,226.875L552.828,225.657L552.722,224.678L552.459,223.745ZM530.288,223.484L528.822,222.825L527.726,222.167L527.071,221.218L527.642,220.575L530.356,219.952L532.635,219.96L533.882,219.647L532.198,219.2L535.566,218.371L537.645,218.169L541.38,216.977L543.681,217.286L544.862,217.11L547.861,217.955L547.061,217.244L548.253,217.176L549.084,216.011L551.093,215.791L553.521,215.953L555.319,215.539L557.737,215.713L558.392,215.317L556.507,214.597L557.306,214.22L562.213,214.644L563.896,216.342L567.374,217.733L568.302,218.701L569.807,219.836L567.898,220.41L565.357,219.648L562.802,220.759L562.014,220.535L561.446,218.656L560.082,220.16L560.618,221.189L558.394,221.304L556.051,220.83L554.454,221.208L553.941,222.371L552.148,223.292L550.421,222.151L550.266,221.675L547.755,221.696L548.904,222.704L551.508,223.944L551.196,225.13L549.958,226.026L549.332,226.877L547.945,227.437L546.349,227.189L545.6,226.841L543.876,226.457L541.583,226.632L541.125,226.179L541.613,225.36L539.137,226.134L537.829,226.09L536.467,225.855L534.646,225.218L534.695,224.871L532.506,224.616L531.426,224.038ZM503.053,222.671L497.604,221.357L498.186,220.144L500.938,219.557L504.918,218.815L504.36,218.393L501.727,218.993L498.883,218.48L497.898,219.5L496.609,218.748L496.456,217.181L495.064,218.48L492.209,220.278L489.519,220.479L487.935,219.679L489.417,217.183L489.367,216.552L491.867,215.486L489.654,215.874L489.161,214.033L488.623,212.473L486.305,210.2L483.528,209.249L485.329,208.74L486.751,207.698L483.372,207.189L481.341,205.716L482.626,205.229L479.08,204.144L482.192,203.325L479.692,202.998L479.512,202.314L481.413,201.617L483.603,201.199L480.438,200.478L479.631,199.789L483.601,199.837L484.041,199.265L481.368,199.268L478.081,198.771L475.981,197.757L478.892,196.873L480.912,197.173L483.995,197.658L482.385,196.751L483.786,195.663L478.781,196.415L476.127,196.818L479.843,194.753L484.236,192.927L489.961,191.762L492.287,191.527L494.194,190.849L496.536,189.359L501.113,188.293L502.714,188.179L505.778,187.811L509.156,187.499L511.187,186.857L511.202,186.19L512.488,185.61L516.811,185.006L515.845,184.418L517.201,183.902L518.828,183.387L522.883,183.481L526.741,184.109L532.319,184.463L534.614,184.994L535.672,185.793L539.05,187.178L539.673,187.866L539.095,188.725L541.302,190.038L539.654,190.726L540.715,191.311L537.262,192.448L533.764,192.575L532.557,193.05L531.414,194.1L534.004,193.837L535.237,193.754L537.177,193.778L539.196,194.543L538.457,195.509L537.049,196.183L535.318,195.981L531.795,195.142L534.304,196.468L535.508,197.203L537.455,197.229L538.592,197.83L535.422,199.039L535.932,199.802L536.229,201.174L536.461,203.347L537.653,204.375L536.934,205.145L539.455,206.946L542.037,207.693L545.502,208.47L548.711,209.197L549.28,210.171L549.542,211.899L545.749,211.518L543.35,210.959L547.373,212.866L548.527,214.4L547.222,215.038L542.154,214.702L537.387,214.652L536.17,215.318L537.733,216.753L535.965,217.378L531.442,218.179L530.036,218.153L529.428,219.28L527.101,219.528L524.514,219.491L522.178,219.164L521.717,218.264L519.086,219.456L517.556,218.331L516.49,218.058L514.941,217.14L516.603,218.628L516.252,219.75L513.635,221.259L511.246,221.119L510.462,222.142L508.238,222.502Z" fill="rgba(250,250,247,0.55)" stroke="rgba(250,250,247,0.15)" stroke-width="0.3"/>
    </g>

    <!-- アーチ（球体の上） -->
    <path d="M 512.00 512.00 L 516.35 508.83 L 520.81 505.58 L 525.37 502.25 L 530.05 498.84 L 534.82 495.35 L 539.71 491.79 L 544.69 488.15 L 549.78 484.44 L 554.97 480.66 L 560.25 476.81 L 565.63 472.89 L 571.09 468.90 L 576.63 464.86 L 582.25 460.76 L 587.93 456.62 L 593.68 452.43 L 599.48 448.20 L 605.32 443.94 L 611.19 439.65 L 617.09 435.35 L 623.00 431.04 L 628.91 426.73 L 634.80 422.43 L 640.68 418.14 L 646.52 413.89 L 652.31 409.66 L 658.04 405.48 L 663.70 401.35 L 669.27 397.29 L 674.75 393.30 L 680.12 389.38 L 685.37 385.55 L 690.50 381.81 L 695.48 378.17 L 700.33 374.64 L 705.02 371.22 L 709.56 367.91 L 713.93 364.72 L 718.14 361.65 L 722.18 358.70 L 726.04 355.88 L 729.74 353.19 L 733.26 350.62 L 736.61 348.17 L 739.80 345.85 L 742.81 343.65 L 745.66 341.57 L 748.35 339.61 L 750.89 337.76 L 753.27 336.03 L 755.50 334.40 L 757.59 332.87 L 759.54 331.45 L 761.36 330.12 L 763.06 328.89 L 764.63 327.74 L 766.09 326.68 L 767.43 325.69 L 768.68 324.79 L 769.82 323.95 " fill="none" stroke="#FAFAF7" stroke-width="1.6" stroke-dasharray="2.5 2.5" stroke-linecap="round" opacity="0.85"/>

    <!-- 点：日本 -->
    <circle cx="512.00" cy="512.00" r="23.76" fill="#7BB4FF"/>
    <!-- 点：SF -->
    <circle cx="769.82" cy="323.95" r="23.76" fill="#FF9FB8"/>
  </g>
</svg>